<?xml version="1.0" encoding="utf-8"?>
<!-- Generator: Adobe Illustrator 19.0.0, SVG Export Plug-In . SVG Version: 6.00 Build 0)  -->
<svg version="1.1" id="Layer_1" xmlns="http://www.w3.org/2000/svg" xmlns:xlink="http://www.w3.org/1999/xlink" x="0px" y="0px"
	 viewBox="0 0 32 32" style="enable-background:new 0 0 32 32;" xml:space="preserve">
<style type="text/css">
	.st0{fill:none;stroke:#111111;stroke-width:2;stroke-miterlimit:10;}
	.st1{fill:none;stroke:#111111;stroke-width:2;stroke-linecap:round;stroke-linejoin:round;stroke-miterlimit:10;}
</style>
<path id="XMLID_412_" class="st0" d="M14.3,13.7c0-0.1,0-0.2-0.1-0.3L7.3,6.3C7.2,6.2,7.1,6.2,7,6.2s-0.2,0-0.3,0.1
	c-2,2-3.1,4.6-3.1,7.4c0,2.1,0.7,4.2,1.9,6c0.1,0.1,0.2,0.2,0.3,0.2c0.1,0,0.2,0,0.2-0.1l8.1-5.7C14.2,14,14.3,13.9,14.3,13.7z"/>
<g>
	<path class="st1" d="M17.8,4.9c-0.2,0-0.3,0-0.5,0c0,2,0,10.6,0,10.6L9,21.3c1.9,2.8,5.1,4.6,8.7,4.6c5.8,0,10.5-4.7,10.5-10.5
		S23.5,4.9,17.8,4.9z"/>
</g>
</svg>
