<?xml version="1.0" encoding="utf-8"?>
<!-- Generator: Adobe Illustrator 19.0.0, SVG Export Plug-In . SVG Version: 6.00 Build 0)  -->
<svg version="1.1" id="Layer_1" xmlns="http://www.w3.org/2000/svg" xmlns:xlink="http://www.w3.org/1999/xlink" x="0px" y="0px"
	 viewBox="0 0 74 74" style="enable-background:new 0 0 74 74;" xml:space="preserve">
<style type="text/css">
	.st0{fill:none;stroke:#1E1B1C;stroke-width:2;stroke-linejoin:round;stroke-miterlimit:10;}
</style>
<g id="XMLID_366_">
	<path id="XMLID_368_" class="st0" d="M70.8,55.6l-9.4-6c-14.1-8.9-21.1,1.6-21.1,1.6c5-0.3,21.7,7.3,21.7,7.3L61.2,54L70.8,55.6z"
		/>
	<path id="XMLID_367_" class="st0" d="M37.9,49.3l0.4-0.7l1.4,22.5c0.4,0.1,0.7,0.2,1.1,0.3c-0.4-6.7-1.4-22-1.8-25.6
		c0-2.5,0.1-4.6,0.4-5.9c1.4-5.9,4.9-7,3.8-15.3l-5.2,1.4c0,0-1-16.7-7-22.6c0,0-4.9,15-1.7,23.7c0,0-5.2,0-5.2,1s0.3,5.6,10.8,10.4
		c0,0,1.7,0.5,3.3,7.9l0.1,1.2C37,46.9,33,45.2,26.6,48c0,0-9.4,1.3-16.1,1.3c-0.7,0-1.7,0.1-1.7,0.1s-6.3,2.8-5.6,4.5
		c0.7,1.7,11.8,3.5,17.7,1C21.1,55,32.2,44.1,37.9,49.3z"/>
</g>
</svg>
