<?xml version="1.0" encoding="utf-8"?>
<!-- Generator: Adobe Illustrator 19.0.0, SVG Export Plug-In . SVG Version: 6.00 Build 0)  -->
<svg version="1.1" id="Layer_1" xmlns="http://www.w3.org/2000/svg" xmlns:xlink="http://www.w3.org/1999/xlink" x="0px" y="0px"
	 viewBox="0 0 44 44" style="enable-background:new 0 0 44 44;" xml:space="preserve">
<style type="text/css">
	.st0{fill-rule:evenodd;clip-rule:evenodd;fill:none;stroke:#111111;stroke-width:2;stroke-miterlimit:10;}
</style>
<path id="XMLID_372_" class="st0" d="M26.4,42c4-1,8.7-2.1,10.2-7c0.7-2.3-1.6-3.6-3.1-4.8c-4.8-4.1-8.3-10-8.5-16.6
	c-0.1-3.5,1.1-8.3,2.8-11.3c0-0.1,0-0.2,0-0.2C27.8,2,27.7,2,27.6,2H16.4c-0.1,0-0.2,0-0.2,0.1c0,0.1,0,0.2,0,0.2
	c1.8,3,2.9,7.9,2.8,11.3c-0.2,6.6-3.7,12.5-8.5,16.6C9,31.5,6.7,32.8,7.4,35c1.5,4.8,6.2,6,10.2,7H26.4z"/>
</svg>
