<?xml version="1.0" encoding="utf-8"?>
<!-- Generator: Adobe Illustrator 19.0.0, SVG Export Plug-In . SVG Version: 6.00 Build 0)  -->
<svg version="1.1" id="Layer_1" xmlns="http://www.w3.org/2000/svg" xmlns:xlink="http://www.w3.org/1999/xlink" x="0px" y="0px"
	 viewBox="0 0 70 70" style="enable-background:new 0 0 70 70;" xml:space="preserve">
<style type="text/css">
	.st0{fill:#FFFFFF;}
	.st1{fill:#E0E0E0;}
	.st2{fill:#1C1C1A;}
</style>
<path id="XMLID_7_" class="st0" d="M67.6,29.1c-2.3-8.9-8.9-16.4-17.8-20c-8.6-3.4-18.6-3-28.3,1.1c-9.9,4.3-16.9,11.4-19.6,20
	c-2.1,6.6-1.2,13.3-0.1,17.8c1.7,7,5.7,11.8,11.2,13.7c2.6,0.9,9.8,1,11.9,1c0.2,0,0.3,0,0.4,0c3.9-0.1,7.8-0.3,11.7-0.6
	c3.7-0.3,7.5-0.8,11.3-1.3c3.5-0.5,7.5-1.3,11.6-3.6C69.5,52,70.1,38.8,67.6,29.1z"/>
<path id="XMLID_89_" class="st1" d="M59.8,30.8C58.1,24,53,18.7,46.7,16.1c-7.1-2.8-15.1-2-22,1C18,20,11.9,25,9.6,32.3
	c-1.4,4.3-1,9.2,0,13.5c0.9,3.8,3,7.5,6.8,8.7c1.1,0.4,6.5,0.7,9.5,0.6c3.5-0.1,7-0.2,10.5-0.5c3.4-0.3,6.7-0.7,10.1-1.2
	c2.9-0.4,5.9-1,8.9-2.7C61.8,47.2,61.4,36.9,59.8,30.8z"/>
<g id="XMLID_2_">
	<path id="XMLID_19_" class="st2" d="M61.5,30.7c-1.7-6.9-6.9-12.6-13.8-15.4c-6.7-2.7-15-2.3-22.7,1c-7.9,3.4-13.5,9-15.7,15.8
		c-1.6,5-0.9,10.4,0,14c1.2,4.9,3.9,8.2,7.4,9.4C18,56,23,56.3,26,56.3c0.2,0,0.4,0,0.6,0c3.5-0.1,7-0.2,10.6-0.5
		c3.3-0.3,6.8-0.7,10.2-1.2c2.9-0.5,6.1-1,9.2-2.8C63.7,47.9,63,36.7,61.5,30.7z M17.3,52.8c-1.8-0.6-4.1-3.9-4.9-7.4
		c-0.7-2.9-1.3-7.1-0.4-11c1.8-7.8,8.4-12.2,12.2-14.1c6.6-3.4,13.6-4.4,19.8-2.8c6,1.5,10.9,5.5,13.3,10.7c1.9,4.2,2.1,8.8,1.9,12
		c-0.2,4-1.7,7-4.4,8.9c-1.9,1.3-5.5,1.8-7.2,2.1l-0.6,0.1c-3.2,0.5-6.5,0.9-10.1,1.3c-3.2,0.3-6.5,0.5-9.7,0.6l-0.6,0
		C23.4,53.2,20.3,53.3,17.3,52.8z"/>
	<path id="XMLID_20_" class="st2" d="M26.3,24.4c-0.5-0.4-1.3-0.3-1.7,0.2v0c-2.8,3.5-4.7,7.5-5.7,11.7c-0.5,2.1-0.7,4.3-0.7,6.4
		c0,2.1,0.1,4.5,1,6.4c0.2,0.4,0.6,0.7,1.1,0.7c0.1,0,0.2,0,0.3,0c0.6-0.1,1-0.6,1-1.2c0-1-0.1-2-0.2-2.9c-0.1-1-0.2-1.9-0.2-2.8
		c0-2,0.2-4,0.6-6c0.8-4,2.5-7.7,4.8-10.7C26.9,25.6,26.8,24.8,26.3,24.4z"/>
	<path id="XMLID_21_" class="st2" d="M48.7,33.3c0.4,1.4,0.6,2.7,0.6,4c0,0.7,0,1.3-0.1,2c0,0.7-0.1,1.4-0.1,2.2
		c0,0.6,0.4,1.1,1,1.2c0.1,0,0.1,0,0.2,0c0.5,0,1-0.3,1.2-0.8c1.3-3.2,0.4-7.4-0.3-9.6c-0.9-3-2.4-5.7-4.6-8.1v0
		c-0.5-0.5-1.2-0.6-1.7-0.1c-0.5,0.5-0.6,1.3-0.1,1.8C46.7,28,48,30.5,48.7,33.3z"/>
</g>
</svg>
