<?xml version="1.0" encoding="utf-8"?>
<!-- Generator: Adobe Illustrator 19.0.0, SVG Export Plug-In . SVG Version: 6.00 Build 0)  -->
<svg version="1.1" id="Layer_1" xmlns="http://www.w3.org/2000/svg" xmlns:xlink="http://www.w3.org/1999/xlink" x="0px" y="0px"
	 viewBox="0 0 70 70" style="enable-background:new 0 0 70 70;" xml:space="preserve">
<style type="text/css">
	.st0{fill:#FFFFFF;}
	.st1{fill:#E21742;}
</style>
<path id="XMLID_7_" class="st0" d="M69,33.6L69,33.6c-1-3.4-3.3-6-6.5-6.6c-0.5-2.8-1.5-5.6-3-8c-0.3-0.4-0.6-0.9-0.9-1.3
	c0.2-1.4,0-2.8-0.6-4.2c-0.8-2-2.4-3.5-4.4-4.3l-9.7-3.9c-2.3-3-6.3-3.9-9.7-2.3l-5.3,2.5c-0.5,0.2-1,0.5-1.5,0.9l-1.8-0.3
	c-1.1-0.2-2.2-0.2-3.3,0.1l-8.5,2c-2.1,0.5-3.9,1.8-5,3.6C8,13,7.6,14.5,7.6,16.1c-2.4,2.6-4.3,6-5.7,10c-2.8,8.2-1.4,17,4.2,25.4
	c2.4,3.6,6,6.3,10.2,7.8c3.9,5.4,10.1,9.1,15.6,9.1c5.2,0,8.7-0.1,16.4-0.5c5.6-0.3,10.8-3.1,14.6-7.8C68.2,53.2,71,43.1,69,33.6z"
	/>
<path id="XMLID_96_" class="st1" d="M63.4,33.8c-0.2-1-1.1-1.8-2.2-1.7L57,32.3c0.6-3.7-0.1-7.6-2.1-10.8c-0.9-1.3-1.9-2.5-3.2-3.5
	c0.6-0.2,1-0.6,1.3-1.2c0.4-1.1-0.1-2.3-1.2-2.7L42,10.1c-0.3-0.1-0.7-0.2-1-0.1l-1,0.1c0.2-0.6,0-1.3-0.4-1.8
	c-0.6-0.8-1.6-1-2.5-0.6l-5.3,2.5c-0.2,0.1-0.4,0.2-0.6,0.4L29.6,12l-4.7-0.9c-0.3-0.1-0.6,0-0.8,0l-8.5,2c-1.1,0.3-1.8,1.4-1.6,2.5
	c0.1,0.6,0.5,1.1,1.1,1.4C12,19.2,9.6,22.6,8,27.2c-2.2,6.5-1,13.3,3.5,20.2c2,3,5.2,5.1,9,5.9c2.6,4.7,7.9,8.2,11.8,8.2
	c5.1,0,8.5-0.1,16.1-0.5c3.9-0.2,7.4-2.2,10.2-5.6C62.8,50.1,64.7,41.6,63.4,33.8z M41.8,14.5l-4,2.7l-0.8-0.6
	c-0.5-0.4-1.1-0.3-1.5,0.2c-0.4,0.5-0.3,1.1,0.2,1.5l5.6,4.4l-0.1,2.5l-0.5-0.9c-0.1-0.1-0.2-0.3-0.3-0.3l-7.3-4.7
	c-0.3-0.2-0.8-0.2-1.1,0l-5.2,3.4c-0.1,0.1-0.2,0.2-0.3,0.3l-1.3,2.1l0.1-3.5l4.2-2.8c0.5-0.3,0.6-1,0.3-1.4c-0.3-0.5-1-0.6-1.4-0.3
	l-0.7,0.5l-3-1.9l5.4,1c0.7,0.1,1.3-0.1,1.8-0.5l1.9-1.8c0.4,0.7,1.2,1,2,0.9l5.3-0.7L41.8,14.5z M42.5,18.5
	c3.5,0.2,6.9,2.2,8.8,5.2c1.6,2.6,2.1,5.8,1.4,8.8l-26.4,1.3c-0.4,0-0.7,0.1-1,0.3c-4.2,2.7-6.9,8.9-6.4,14.3
	c-1.6-0.8-2.9-1.9-3.9-3.3c-3.8-5.8-4.8-11.3-3-16.6c2.2-6.5,6-9.7,11.9-10.2c0.7-0.1,1.3,0,1.8,0.2l-2.1,1.4
	c-0.3,0.2-0.5,0.5-0.5,0.8l-0.3,7.8c0,0.5,0.3,0.9,0.7,1c0.1,0,0.2,0,0.3,0c0.3,0,0.7-0.2,0.9-0.5l3.3-5l4.5-2.9l6.5,4.2l2.2,3.7
	c0.2,0.4,0.7,0.6,1.2,0.5c0.4-0.1,0.8-0.5,0.8-1l0.3-6.5c0-0.3-0.1-0.7-0.4-0.9L40,18.9C40,18.9,40.8,18.4,42.5,18.5z M23,48.4
	c-0.5-3.2,0.7-6.6,2.5-8.9c0.7,4.5,2.8,8.8,5.8,12.2c1.8,2,4.5,4.1,7.6,5.6c-2.3,0.1-4.3,0.1-6.6,0.1C29.3,57.4,23.8,53,23,48.4z
	 M59.6,36.3c0.6,6.1-1,12.4-4.3,16.5c-1.4,1.7-3.8,3.9-7.2,4.1c-0.9,0.1-1.8,0.1-2.7,0.1c-4.9-0.5-9.7-3.5-12.6-6.7
	c-3.1-3.4-5-7.8-5.5-12.4L59.6,36.3z M57.1,38.6c0.2,0.2,0.3,0.5,0.3,0.8c-0.8,7.1-4.4,12.1-9.8,13.4c-0.9,0.2-1.8,0.3-2.7,0.3
	c-4.3,0-8.6-2.5-11.7-7c-0.2-0.3-0.2-0.7-0.1-1l2.1-5c0.2-0.5,0.8-0.8,1.4-0.6c0.5,0.2,0.8,0.8,0.6,1.4l-1.9,4.5
	c3.1,4.4,7.6,6.4,11.8,5.4c4.2-1,7.1-4.9,8.1-10.4l-2.6,0.1c-0.1,0.5-0.3,1-0.6,1.5c0.3,0.1,0.6,0.3,0.8,0.5c0.5,0.3,0.6,1,0.2,1.5
	c-0.2,0.3-0.5,0.4-0.8,0.4c-0.2,0-0.4-0.1-0.6-0.2c-0.2-0.2-0.5-0.3-0.8-0.4c-0.4,0.4-0.7,0.7-1.2,1c0.4,0.5,0.8,1.1,1.1,1.7
	c0.2,0.5,0,1.1-0.5,1.4C50,48,49.8,48,49.7,48c-0.4,0-0.8-0.2-0.9-0.6c-0.3-0.6-0.7-1.1-1.1-1.6c-0.4,0.1-0.8,0.2-1.2,0.3
	c0,0.4,0.1,0.8,0.1,1.2c0.1,0.6,0.1,1.1,0.2,1.8c0.1,0.6-0.3,1.1-0.9,1.1c0,0-0.1,0-0.1,0c-0.5,0-1-0.4-1-0.9
	c-0.1-0.7-0.1-1.2-0.2-1.8c-0.1-0.5-0.1-0.9-0.2-1.3c-0.6-0.1-1.1-0.2-1.6-0.3l-1.6,1.9c-0.2,0.2-0.5,0.4-0.8,0.4
	c-0.2,0-0.5-0.1-0.7-0.2c-0.4-0.4-0.5-1-0.1-1.5l1.3-1.6c-0.3-0.2-0.6-0.5-0.9-0.8l-1,0.8c-0.2,0.2-0.4,0.2-0.6,0.2
	c-0.3,0-0.6-0.1-0.8-0.4c-0.4-0.5-0.3-1.1,0.2-1.5l1.1-0.9c-0.1-0.2-0.2-0.3-0.2-0.5c-0.2-0.5,0-1.1,0.5-1.4c0.5-0.2,1.1,0,1.4,0.5
	c0.1,0.3,0.3,0.6,0.5,0.9c0,0,0,0,0,0c0,0,0,0,0,0c1.1,1.7,2.8,2.5,4.8,2.2c2.1-0.3,4.5-1.9,4.8-4.7c0.1-0.5,0.5-0.9,1-0.9l4.7-0.2
	C56.6,38.3,56.9,38.4,57.1,38.6z M31.2,17.2c0-0.5,0.4-0.9,0.9-1c0.2,0,0.5,0,0.7,0.1c0.1,0,0.1,0,0.2-0.1c0.5-0.3,1.1-0.2,1.4,0.3
	c0.3,0.5,0.2,1.1-0.3,1.4c-0.4,0.3-1,0.5-1.5,0.5c-0.2,0-0.3,0-0.5,0C31.5,18.3,31.1,17.8,31.2,17.2z"/>
</svg>
