<?xml version="1.0" encoding="utf-8"?>
<!-- Generator: Adobe Illustrator 19.0.0, SVG Export Plug-In . SVG Version: 6.00 Build 0)  -->
<svg version="1.1" id="Layer_1" xmlns="http://www.w3.org/2000/svg" xmlns:xlink="http://www.w3.org/1999/xlink" x="0px" y="0px"
	 viewBox="0 0 70 70" style="enable-background:new 0 0 70 70;" xml:space="preserve">
<style type="text/css">
	.st0{fill:#FFFFFF;}
	.st1{fill:#345428;}
	.st2{opacity:0.6;fill:#1C3723;enable-background:new    ;}
	.st3{fill:#3F6629;}
	.st4{fill:#5F8730;}
	.st5{fill:#6BA149;}
	.st6{opacity:0.8;fill:#578225;enable-background:new    ;}
	.st7{opacity:0.6;fill:#2B3F28;enable-background:new    ;}
	.st8{fill:#A8C840;}
	.st9{opacity:0.9;fill:#7FA026;enable-background:new    ;}
	.st10{fill:#B2D53F;}
	.st11{fill:#87B436;}
</style>
<g id="XMLID_26_">
	<path id="XMLID_75_" class="st0" d="M68.6,43.9c-0.4-0.8-1.1-1.6-1.6-2.4c-0.7-1-1.2-2.1-1.8-3.1c-1.1-1.9-2.3-3.3-3.9-4.8
		c-1.8-1.7-0.3-3.4,0.3-5.3c1.5-4.4,2.3-9,1.7-13.7C63,11.4,62.9,8,60,5.9c-1.1-0.8-2.5-1.2-3.9-1.4c-0.8-0.1-1.6,0.2-2.4,0.3
		c-1.2,0.2-2.3,0.4-3.5,0.5c-4,0.6-7.7,2-11.2,4.2c-0.8,0.5-1.6,1.2-2.3,1.9c-0.7,0.7-1.4,1.3-2.4,0.9c-0.8-0.2-1.6-0.9-2.4-1.3
		c-1.1-0.5-2.4-0.8-3.6-1.2C24.2,8.8,20,8,15.8,7.7c-1.7-0.1-3.3-0.1-4.7,0.8c-1.6,1-2.5,2.7-2.7,4.5c-0.2,1.3,0,2.6,0.1,3.9
		c0.3,2.4,0.6,4.7,1.1,7c0.5,2.2,1.1,4.4,2,6.5c0.4,0.9,0.8,1.8,1.3,2.6c0.3,0.4,0.5,0.9,0.8,1.3c0.1,0.1,0.4,0.4,0.4,0.6
		c0.2,0.6,0.2,0.2-0.2,0.6c-0.5,0.7-1.4,1.3-2.1,1.9c-0.8,0.9-1.6,1.8-2.4,2.7c-1.5,1.9-2.9,3.9-4.2,5.9c-1.1,1.7-2.1,3.4-3.1,5
		c-1,1.6-1.4,3.4-0.7,5.1c1.1,2.8,4.7,4,7.3,5.1c4.1,1.9,8.2,3.4,12.7,2.9c4.3-0.5,8.7-2.3,12.3-4.5c1.7-1.1,3.3-2.4,4.7-3.9
		c0.7-0.7,1.3-1.5,1.9-2.3c0.5-0.7,1-1.8,1.9-2.1c0.9-0.3,2,0.2,2.9,0.4c1.2,0.3,2.4,0.4,3.5,0.4c2.1,0.1,4.2,0.1,6.3,0.1
		c2,0,4.2,0.1,6.2-0.3c1.7-0.3,3.1-1.1,4.6-1.8c1.7-0.9,5-1.8,3.8-4.3C69.4,45.4,69,44.7,68.6,43.9z"/>
	<g id="XMLID_29_">
		<g id="XMLID_72_">
			<path id="XMLID_74_" class="st1" d="M38.2,39.4c2.9,0.9,7.4-0.1,10.7-2.5c3.3-2.4,5.9-5.6,7-7.7c1-2.1,2.5-8.3,2.5-10.3
				s-0.9-8.6-1.1-9c-2.1,0.4-5,1-7.3,1.3c-2.2,0.3-5.2,1.3-8.7,3.6C37.7,17.2,31.7,29.3,38.2,39.4z"/>
			<path id="XMLID_73_" class="st2" d="M58.3,18.7c0-0.3,0-0.5-0.1-0.8c-3.8,2.4-10.4,5.9-10.4,5.9c2.2-3.4,7.1-10.6,9.2-13.8
				c-0.3,0.1-0.5,0.1-0.8,0.2c-4,5.6-10.2,14.6-10.6,15.6c0.3-4.2,1.4-11.4,2.1-14.1c-0.3,0.1-0.4,0.1-0.7,0.2
				c-1.5,5.6-2.4,14.7-2.7,15.9c-0.2,0.9-1.9,3.3-3.2,4.9c-0.2,0.3-0.9-14.2-0.9-14c-0.5,0.7-0.4,15.8-0.4,15.8l2.2-0.6
				c0,0,10.1-3.6,14.1-5.3c0.2-0.3,0.3-0.8,0.4-1.2c-4.8,2.2-13,4.7-13,4.7c2-3.5,3.4-6.6,3.4-6.6C50,23.8,55.4,20.5,58.3,18.7z"/>
		</g>
		<g id="XMLID_69_">
			<path id="XMLID_71_" class="st3" d="M6.4,55c4.8-8.3,8.8-14,13.2-16.5c2.6-1.5,8.4-2.2,11-2.3c2.8-0.1,8.2,0.5,9.7,0.9
				C41.7,40.7,38,53,30,56.8c-7.8,3.9-11.2,3.3-12.5,3C16.2,59.5,9.5,57.1,6.4,55z"/>
			<path id="XMLID_70_" class="st4" d="M33.8,43.3c0,0-7.2,14.1-7.5,14.1c-0.3-0.1,5.1-12.8,5.1-12.8L26.8,47
				c-5.2,5.3-9.7,10-9.7,10l-1.7,1c4.1-4.2,9.2-10.2,9.2-10.2C17.9,50.8,11.4,53,11.4,53C12.5,52.4,15,51,15,51
				c2.6-1.1,10.8-4.7,10.8-4.7C19.8,47.5,13.3,47,13.3,47c2.3-0.3,14.7-1.9,14.7-1.9l2.6-0.9c-5.1-0.9-10.3-2.2-10.3-2.2
				s-1.7-0.7-2-1.1C21.1,41.1,33.8,43.3,33.8,43.3z"/>
		</g>
		<g id="XMLID_64_">
			<path id="XMLID_68_" class="st5" d="M38.4,37.9c2.6-3.1,8-4.7,8-4.7c1.6,0,4.2,0.3,5.5,0.7c1.4,0.7,5.9,4,7.4,5.6
				c1.6,2.4,3.6,6.1,4.1,7c-1.4,0.7-2.7,1.3-3,1.3c-1.9,0.2-10,0.4-13.6-0.1c-2.8-0.4-5.7-2.5-7.5-4.3
				C37.7,41.4,37.9,38.5,38.4,37.9z"/>
			<path id="XMLID_67_" class="st6" d="M62.9,45.5c-0.1,0-0.1,0-0.2-0.1c-0.5-0.2-14.7-6.3-22.2-8c0,0,11.8,0.1,17.5,0.9
				c-0.3-0.3-0.5-0.4-0.8-0.7c-0.3-0.1-0.4-0.2-0.8-0.3c-1.7-0.5-9.7-0.9-9.7-0.9l4.7-2.8c-0.3-0.1-0.7-0.2-1.1-0.3
				c-1.4,0.7-3.6,1.9-4.9,2.8c0,0-2.4,0-5.8,0.1c-0.4,0.3-0.8,0.7-1.1,1c0.4,2.1,2,5.3,3.4,7.9c0.3,0.2,0.5,0.3,0.8,0.5
				c-1.2-2.8-2.7-7.2-2.7-7.2l0.8,0.5c0,0,4.6,4.8,8.2,8.4c0.4,0,0.9,0.1,1.4,0.1c-3.1-3-8-8.6-8-8.6l6.5,2.1
				c5.4,4.2,4.7,3.7,8.1,6.5c0.3,0,0.5,0,0.8,0c-2.8-2.4-6.6-5.7-6.6-5.7s7.8,2.5,12,3.9C63.1,45.9,63,45.7,62.9,45.5z"/>
			<path id="XMLID_66_" class="st7" d="M46.4,33.1c0,0-5.4,1.6-8,4.7c0,0,0,0.1-0.1,0.1c0.5,0.5,1.6,0.8,2.4,0.8
				c2.3-0.6,5.6-2.2,5.6-2.2s1.5-1.7,2.6-3.2C48,33.2,47.1,33.1,46.4,33.1z"/>
		</g>
		<g id="XMLID_54_">
			<path id="XMLID_60_" class="st8" d="M13.6,13.6c2.8-0.5,12.5,1.4,16.2,2.9c2,0.9,5.5,4.7,6,6.2c0.6,1.5,2.4,8.9,2.2,14.7
				c-1.4,1-3.4,1.4-4.1,1.4c-2.4,0.1-7.8-0.3-12.1-2.8c-4.3-2.7-5.6-7-6.3-8.7C14.7,24.9,12.8,15.7,13.6,13.6z"/>
			<path id="XMLID_59_" class="st9" d="M34.5,32.9c0,0,0.2-6.5,0.6-11.5c-0.3-0.3-0.1-0.2-0.4-0.6c-0.3,3.6-0.9,8.7-1.1,11
				c0,0-0.9-1.1-2.4-2.7c0,0-0.9-2.1-1.6-3.8c0.1-1,0.2-5.2,0.1-9c-0.2-0.1-0.3-0.2-0.5-0.2c0,2.2-0.1,5.3-0.4,7.7
				c0,0-2.6-4.9-4.7-9.1c-0.3-0.1-0.3-0.1-0.6-0.1c1.3,2.5,3.9,8.4,5.9,13C28.5,27,18.9,17.4,14.7,13.7c-0.3,0-0.6,0-0.9,0.1
				c3.9,4,15.7,15.8,18.2,18.2c0,0-10.9-6.6-17.8-11.1c0.1,0.3,0.2,0.4,0.2,0.8c4.3,2.7,13.4,8.5,18.8,12.2c0,0,1.1,0.9,1.8,2
				c0,0-10-1.6-17.1-3.7c0.2,0.3,0.4,0.6,0.7,0.9c4,1.3,12,2.7,16.8,3.8c0,0,0.6,0.7,1.5,1.5c0.5-0.2,0.9-0.4,1.4-0.8
				C37.2,36.3,35.9,34.6,34.5,32.9z"/>
		</g>
		<path id="XMLID_47_" class="st10" d="M38.9,38.6c1.6,0.4,2.8,0.3,3.2,0c0.6-0.6,1.6-1.4,2.2-2.1c2.3-2.6,4.6-5,4.7-11.8
			c-2.5,0.9-5.5,2.2-5.5,2.2c-0.8,0.4-3.4,3-3.8,3.8C39.2,31.7,38.4,34.3,38.9,38.6z"/>
		<path id="XMLID_43_" class="st11" d="M38,38.4c0.7,4.1,0.3,5.3,0.1,6.1s-2.5,4.6-4,5.7c-1,0.8-4.1,1.2-7,0.8
			c-2.1-0.3-3.1-0.9-3.1-0.9c0.4-2.2,2.1-6.2,2.5-6.6c0.5-0.5,2.5-2.5,5.2-3.8C33.7,39.1,38,38.4,38,38.4z"/>
	</g>
</g>
</svg>
