<?xml version="1.0" encoding="utf-8"?>
<!-- Generator: Adobe Illustrator 19.0.0, SVG Export Plug-In . SVG Version: 6.00 Build 0)  -->
<svg version="1.1" id="Layer_1" xmlns="http://www.w3.org/2000/svg" xmlns:xlink="http://www.w3.org/1999/xlink" x="0px" y="0px"
	 viewBox="0 0 74 74" style="enable-background:new 0 0 74 74;" xml:space="preserve">
<style type="text/css">
	.st0{fill:none;stroke:#1E1B1C;stroke-width:2;stroke-linecap:round;stroke-miterlimit:10;}
</style>
<path id="XMLID_336_" class="st0" d="M11.8,40.1c0,0,13.1,0.2,7.8,13.6"/>
<path id="XMLID_337_" class="st0" d="M21.9,23.5c0,0,11.2,1.5,13.7,10.8"/>
<path id="XMLID_370_" class="st0" d="M36.4,14.2c0,0,18.9-0.3,19.6,11.4"/>
<path id="XMLID_400_" class="st0" d="M19.2,42.8c0,0,16.5-27.1,49.5-29.2"/>
<path id="XMLID_401_" class="st0" d="M14.9,37.5c1.4,2.5,0.3,5.8-2.5,7.3c-2.8,1.6-6.1,0.8-7.5-1.7c-1.4-2.5-0.5-6.2,2.3-7.8
	S13.5,35,14.9,37.5z"/>
<ellipse id="XMLID_402_" transform="matrix(0.8714 -0.4906 0.4906 0.8714 -9.5146 13.2227)" class="st0" cx="20.5" cy="24.8" rx="5.6" ry="5.3"/>
<path id="XMLID_403_" class="st0" d="M39.5,12.9c1.3,2.4,0.2,5.5-2.5,7c-2.7,1.5-5.9,0.8-7.3-1.5c-1.3-2.4-0.9-6.1,1.8-7.6
	S38.2,10.5,39.5,12.9z"/>
<ellipse id="XMLID_404_" transform="matrix(0.8714 -0.4906 0.4906 0.8714 -14.6979 23.1804)" class="st0" cx="36.9" cy="39.6" rx="8.5" ry="8"/>
<ellipse id="XMLID_405_" transform="matrix(0.8714 -0.4906 0.4906 0.8714 -7.3026 31.5498)" class="st0" cx="56.5" cy="29.7" rx="8.5" ry="8"/>
<ellipse id="XMLID_256_" transform="matrix(0.8714 -0.4906 0.4906 0.8714 -25.3727 17.9854)" class="st0" cx="21.6" cy="57.4" rx="8.5" ry="8"/>
</svg>
