<?xml version="1.0" encoding="utf-8"?>
<!-- Generator: Adobe Illustrator 19.0.0, SVG Export Plug-In . SVG Version: 6.00 Build 0)  -->
<svg version="1.1" id="Layer_1" xmlns="http://www.w3.org/2000/svg" xmlns:xlink="http://www.w3.org/1999/xlink" x="0px" y="0px"
	 viewBox="0 0 32 32" style="enable-background:new 0 0 32 32;" xml:space="preserve">
<style type="text/css">
	.st0{fill:none;stroke:#111111;stroke-width:1.8;stroke-miterlimit:10;}
</style>
<g id="XMLID_413_">
	<path id="XMLID_415_" class="st0" d="M16,30c-5.5,0-10-4.4-10-9.9c0-2.1,0.7-4.4,1.8-6c-0.1-0.3-0.2-0.5-0.3-0.8
		c-0.4-0.9-0.8-2-1.1-3c-1-2.8-0.3-4.6,0.5-5.7C7.9,2.9,10,2,13.1,2h5.9c3.1,0,5.1,0.9,6.4,2.6c0.8,1.1,1.5,3,0.5,5.7
		c-0.4,1-0.8,2.3-1.4,3.8c1,1.6,1.6,3.8,1.6,6C25.9,25.6,21.5,30,16,30z"/>
	<path id="XMLID_414_" class="st0" d="M19.3,12.5c-0.1,0-0.3,0-0.4-0.1c-0.8-0.3-1.8-0.5-3-0.5c-1.3,0-2.2,0.1-2.9,0.4
		c-0.3,0.1-0.6,0.1-0.8,0c-0.3-0.1-0.5-0.3-0.6-0.6c-0.5-1.3-0.8-2.2-1.2-3.1c-0.1-0.3-0.2-0.6-0.2-0.9c0-0.5,0.2-0.9,0.6-1.1
		c0.3-0.1,0.8-0.2,2.2-0.2h5.7c1.8,0,2.2,0.2,2.4,0.2c0.4,0.2,0.7,0.6,0.6,1.1c0,0.3-0.1,0.6-0.2,0.9c-0.3,0.9-0.7,1.9-1.2,3.2
		c-0.1,0.3-0.3,0.5-0.6,0.6C19.6,12.5,19.5,12.5,19.3,12.5z"/>
</g>
</svg>
