<?xml version="1.0" encoding="utf-8"?>
<!-- Generator: Adobe Illustrator 19.0.0, SVG Export Plug-In . SVG Version: 6.00 Build 0)  -->
<svg version="1.1" id="Layer_1" xmlns="http://www.w3.org/2000/svg" xmlns:xlink="http://www.w3.org/1999/xlink" x="0px" y="0px"
	 viewBox="0 0 32 32" style="enable-background:new 0 0 32 32;" xml:space="preserve">
<style type="text/css">
	.st0{fill:none;stroke:#1C1A1B;stroke-width:2;stroke-miterlimit:10;}
</style>
<g id="XMLID_1_">
	<path id="XMLID_257_" class="st0" d="M24.6,1.2c0,0,4-0.9,4.7,3.4L21.8,14c0,0-4.2,1.2-4.5-3.8L24.6,1.2z"/>
	<path id="XMLID_413_" class="st0" d="M17.9,11.6l-6,7.2c0,0,0.1,2.8,2.9,2.4l5.6-6.7"/>
	<path id="XMLID_411_" class="st0" d="M18,18.1l4.4,3.4c0,0-4.8,7.8-9.6,8.8c0,0-3.6,1.6-7.6,0.6c0,0-1.3-1.6-1.6-6.3
		c0,0-0.3-6.2,6.4-12.1l4.1,2.7"/>
</g>
</svg>
