<?xml version="1.0" encoding="utf-8"?>
<!-- Generator: Adobe Illustrator 19.0.0, SVG Export Plug-In . SVG Version: 6.00 Build 0)  -->
<svg version="1.1" id="Layer_1" xmlns="http://www.w3.org/2000/svg" xmlns:xlink="http://www.w3.org/1999/xlink" x="0px" y="0px"
	 viewBox="0 0 32 32" style="enable-background:new 0 0 32 32;" xml:space="preserve">
<style type="text/css">
	.st0{fill:none;stroke:#1C1A1B;stroke-width:2;stroke-linejoin:round;stroke-miterlimit:10;}
	.st1{fill:none;stroke:#1C1A1B;stroke-width:2;stroke-miterlimit:10;}
</style>
<g id="XMLID_1_">
	<path id="XMLID_391_" class="st0" d="M7.9,13.7c0,0-3.9-4-0.4-7.4c0,0,3.5-4,8.2,0.5c0,0,2.6-5.2,7.7-1.5c0,0,3.8,3.3,0.1,7.2
		c0,0,5.2-0.4,4.7,5.7c0,0,0.1,4.3-6.6,3.7c0,0,0.9,5.9-4,6.1c0,0-5.6,1.1-5.6-5.5c0,0-4.9,2.7-7.6-1.6C4.4,20.8,1.6,16.4,7.9,13.7z
		"/>
	<circle id="XMLID_255_" class="st1" cx="16.2" cy="15.8" r="2.5"/>
</g>
</svg>
