<?xml version="1.0" encoding="utf-8"?>
<!-- Generator: Adobe Illustrator 19.0.0, SVG Export Plug-In . SVG Version: 6.00 Build 0)  -->
<svg version="1.1" id="Layer_1" xmlns="http://www.w3.org/2000/svg" xmlns:xlink="http://www.w3.org/1999/xlink" x="0px" y="0px"
	 viewBox="0 0 32 32" style="enable-background:new 0 0 32 32;" xml:space="preserve">
<style type="text/css">
	.st0{fill:none;stroke:#111111;stroke-width:1.8;stroke-linecap:round;stroke-linejoin:round;stroke-miterlimit:10;}
	.st1{fill:none;stroke:#111111;stroke-width:1.8;stroke-linecap:round;stroke-miterlimit:10;}
</style>
<g id="XMLID_1_">
	<path id="XMLID_410_" class="st0" d="M5.7,8.3c-1.9,2.3,0.7,6.6,2,8.4c1.4,2,3.7,3.8,6.1,4.9c2.5,1.2,4,1.1,5.5,1.1
		c1.1,0,2.3-0.1,3.7,0.4c0.6,0.1,1.1,0.4,1.6,0.6c0.7,0.2,2.5,1.1,2.8,1.2"/>
	<path id="XMLID_409_" class="st0" d="M4.6,18.5C5.5,21.1,7,23.4,9.2,25c6.1,4.4,13.3,0.7,17.8,0.7c0,0-0.1,0-0.1-0.1
		c0.2,0,0.4-0.1,0.5-0.2l0,0c0.1-0.1,0.3-0.3,0.3-0.5c0.1-0.2-0.1-2.2-0.2-3.2c-0.1-1.2-0.1-2.1-0.1-3c0-0.7-0.1-1.4-0.1-2.2
		c-0.1-1.9-0.7-3.7-1.6-5.3c-1.1-2-2.8-3.7-4.9-4.8c-2-1.1-4.3-1.7-6.7-1.6C11.5,5,7.2,6.6,5.5,8.6C3.7,10.7,3.8,16.1,4.6,18.5
		L4.6,18.5z"/>
	<path id="XMLID_408_" class="st0" d="M21.3,18c-1.8-0.7-3.7-1.6-5.3-3.1c-1.6-1.1-1.3-2.9-3.1-4.4c-0.3-0.3,0.8,0.1,2.1,0.4
		c2.7,0.8,4.7,1.2,5.1,4.4C20.3,15.8,21.1,17.8,21.3,18L21.3,18z"/>
	<path id="XMLID_2_" class="st0" d="M1.3,27.3"/>
</g>
<line id="XMLID_406_" class="st1" x1="30.5" y1="5.8" x2="1.4" y2="26.7"/>
</svg>
