<?xml version="1.0" encoding="utf-8"?>
<!-- Generator: Adobe Illustrator 19.0.0, SVG Export Plug-In . SVG Version: 6.00 Build 0)  -->
<svg version="1.1" id="Layer_1" xmlns="http://www.w3.org/2000/svg" xmlns:xlink="http://www.w3.org/1999/xlink" x="0px" y="0px"
	 viewBox="0 0 32 32" style="enable-background:new 0 0 32 32;" xml:space="preserve">
<style type="text/css">
	.st0{fill:none;stroke:#111111;stroke-width:1.8;stroke-linecap:round;stroke-miterlimit:10;}
	.st1{fill:none;stroke:#111111;stroke-width:2;stroke-linecap:round;stroke-linejoin:round;}
</style>
<line id="XMLID_406_" class="st0" x1="30.5" y1="5.8" x2="1.4" y2="26.7"/>
<g id="XMLID_400_">
	<path id="XMLID_405_" class="st1" d="M4.9,11.4c1.3-3.1,4.7-5,8.8-5c1.9,0,3.9,0.4,5.8,1.2c6,2.6,9.2,8.5,7.2,13.2
		c-1.3,3.1-4.7,5-8.8,5c-1.9,0-3.9-0.4-5.8-1.2c-2.9-1.3-5.2-3.3-6.6-5.8C4.1,16.3,3.9,13.7,4.9,11.4z"/>
	<g id="XMLID_401_">
		<g id="XMLID_403_">
			<path id="XMLID_404_" class="st1" d="M8.4,17.5c0,0,1.3,2.5,3.8,3.6c2.5,1.1,5.2,0.3,5.2,0.3s-1.3-2.5-3.8-3.6
				C11.2,16.7,8.4,17.5,8.4,17.5z"/>
		</g>
	</g>
</g>
</svg>
