<?xml version="1.0" encoding="utf-8"?>
<!-- Generator: Adobe Illustrator 19.0.0, SVG Export Plug-In . SVG Version: 6.00 Build 0)  -->
<svg version="1.1" id="Layer_1" xmlns="http://www.w3.org/2000/svg" xmlns:xlink="http://www.w3.org/1999/xlink" x="0px" y="0px"
	 viewBox="0 0 70 70" style="enable-background:new 0 0 70 70;" xml:space="preserve">
<style type="text/css">
	.st0{fill:#FFFFFF;}
	.st1{fill:#383438;}
	.st2{fill:#1B7064;}
	.st3{fill:#C932A9;}
</style>
<path id="XMLID_9_" class="st0" d="M68.4,16.1c-0.9-1.2-2-1.8-3.2-2.1c-0.2-1-0.7-2-1.6-3c-1.2-1.3-2.5-1.8-3.8-2
	c-0.4-1.6-1.2-2.8-2-3.6c-1.2-1.3-2.9-1.9-4.7-1.6c-5.5,0.8-14.8,13.4-15.1,14.1c-1,1.9-0.8,3.9-0.1,5.9c-0.4,0.3-0.7,0.6-1.1,0.9
	c-0.7,0.6-1.6,1.3-2.5,2.2c-3.5-3.6-4.3-4.3-4.8-4.6c0.1-1.9-0.2-4.1-1.4-6.8C26.5,11.8,21.2,6,14.8,5C10.9,4.4,7.3,5.7,4.6,8.6
	C0.6,13,0.2,17.2,0.4,20c0.5,4.5,3.2,8.8,7.7,12.1c3.2,2.3,6.1,3,8.6,2.9c0.8,1.3,2.1,2.7,3.8,4.6c-2.7,2.6-5.1,5.1-7,7.1
	c-4.7,5-6.4,7.1-5.6,10.2c0.9,3.6,4.9,7.2,6.7,8.2c0.8,0.5,1.6,0.7,2.4,0.7c2.4,0,4.8-2.1,8.8-5.6c2.4-2.1,5.1-4.6,7.6-6.9
	c2.5,2.5,4.8,4.8,6.7,6.5c4.6,4.3,6.9,6.3,10.1,5.3c3.5-1.1,6.9-5.2,7.8-7c1.7-3.4-0.3-5.7-4.8-10.7c-1.9-2.2-4.2-4.6-6.3-6.9
	c2.7-2.6,3.7-3.6,4.1-4.2c0.9,0.2,1.8,0.2,2.6,0c3.7-0.7,13.8-10.8,15.2-14.6C70.2,18.9,68.9,16.8,68.4,16.1z"/>
<g id="XMLID_1_">
	<path id="XMLID_278_" class="st1" d="M43.3,28.5l1.5-2.3c0,0-3.5-3.9-2.6-5.6C43,19,52.5,8.1,53.8,9.5c1.3,1.4,1.3,3.1-1.8,6.1
		c-3.1,3-0.9,3.9,0.2,3.1c1.1-0.8,5.6-5.5,7.3-3.7c1.7,1.8-5.4,6.9-4.3,7.4c1.1,0.6,7.4-4.5,8.7-2.8s-9.9,11.8-11.2,12.1
		C51.3,32,48.4,30,48,29.9C47.6,29.7,42.9,35.2,43.3,28.5z"/>
	<path id="XMLID_236_" class="st2" d="M42.5,26.8c-1-0.5-29.7,26.6-29.2,28.5c0.5,1.8,3.2,4.5,4.3,5.1c1.1,0.6,29.3-26.2,29.8-27.1
		C47.8,32.5,46,28.7,42.5,26.8z"/>
	<path id="XMLID_166_" class="st1" d="M23.2,31.1c0,0-2.6-2.3-2.7-2.2c-0.2,0.2-3.5,3.3-8.8-0.5s-8.1-10-2.8-15.8
		c5.3-5.9,13.4,1.7,15.1,5.4c2.3,5.2-0.5,7.8,0,8.3C24.4,26.8,27.6,30.2,23.2,31.1z"/>
	<path id="XMLID_162_" class="st3" d="M20.8,31.7c-0.5,1,26.1,28.9,27.9,28.3c1.8-0.5,4.2-3.3,4.8-4.4c0.6-1.1-25.7-28.5-26.5-29
		C26.2,26.1,22.5,28.1,20.8,31.7z"/>
</g>
</svg>
