<?xml version="1.0" encoding="utf-8"?>
<!-- Generator: Adobe Illustrator 19.0.0, SVG Export Plug-In . SVG Version: 6.00 Build 0)  -->
<svg version="1.1" id="Layer_1" xmlns="http://www.w3.org/2000/svg" xmlns:xlink="http://www.w3.org/1999/xlink" x="0px" y="0px"
	 viewBox="0 0 44 44" style="enable-background:new 0 0 44 44;" xml:space="preserve">
<style type="text/css">
	.st0{fill-rule:evenodd;clip-rule:evenodd;fill:none;stroke:#111111;stroke-width:2;stroke-miterlimit:10;}
</style>
<path id="XMLID_373_" class="st0" d="M15.6,3C15,4.5,14,7.2,13.5,9.7c-0.8,3.8-1.2,7.1,2,9.6c2,1.5,4.7,2.8,5.3,4.1
	c0.5,1.7,0.6,13.9-0.1,14.8c-2,2.6-4.8,2.8-5,3.1c-0.1,0.2-0.2,0.6,0,0.6h12.5c0.2,0,0.2-0.5,0-0.6c-0.2-0.3-3-0.4-5-3.1
	c-0.7-0.9-0.7-13.1-0.1-14.8c0.6-1.3,3.3-2.6,5.3-4.1c3.2-2.5,2.8-5.8,2-9.6C30,7.2,29,4.5,28.5,3H15.6z"/>
</svg>
