<?xml version="1.0" encoding="utf-8"?>
<!-- Generator: Adobe Illustrator 26.0.2, SVG Export Plug-In . SVG Version: 6.00 Build 0)  -->
<svg version="1.1" xmlns="http://www.w3.org/2000/svg" xmlns:xlink="http://www.w3.org/1999/xlink" x="0px" y="0px"
	 viewBox="0 0 70 70" style="enable-background:new 0 0 70 70;" xml:space="preserve">
<style type="text/css">
	.st0{display:none;}
	.st1{display:inline;}
	.st2{fill:none;stroke:#A1AFA4;stroke-width:6;stroke-miterlimit:10;}
	.st3{fill:#4FA364;stroke:#2B5A37;stroke-width:0.75;stroke-linecap:round;stroke-linejoin:round;stroke-miterlimit:10;}
	.st4{opacity:0.6;fill:#4FA364;}
	.st5{opacity:0.6;}
	.st6{fill:#4FA364;}
	.st7{fill:#6BB87E;stroke:#2B5A37;stroke-width:0.75;stroke-linecap:round;stroke-linejoin:round;stroke-miterlimit:10;}
	.st8{fill:#2B5A37;}
	.st9{display:inline;fill:#FFFFFF;}
	.st10{display:inline;fill:#383438;}
</style>
<g id="Layer_2" class="st0">
	<g class="st1">
		<path class="st2" d="M61.55,41.81c0.38-0.56,0.74-1.12,1.08-1.69c0.01-0.02,0.01-0.02,0.01-0.02c0.01-0.02,0.02-0.04,0.02-0.04
			s0.13-0.43,0.29-0.96c0,0,5.43-17.73-0.12-21.79c-3.72-2.72-9.29-0.14-9.29-0.14c-0.5,0.23-0.91,0.42-0.91,0.42c0,0,0,0,0,0
			c0,0,0,0,0,0c-1.02,0.64-1.62,1.15-1.62,1.15c-0.42,0.36-0.94,0.24-1.15-0.27c0,0-0.02-0.04-0.14-0.37
			c-0.3-0.81-6.14,0.46-13.12,2.86c-0.31,0.11-0.31,0.11-0.31,0.11c-0.33,0.12-0.83-0.05-1.11-0.37c0,0,0,0-0.31-0.25
			c-0.48-0.4-1.18-0.83-1.18-0.83c-0.47-0.29-1.06-0.41-1.31-0.27c-0.25,0.14-0.89,0.5-0.89,0.5c0,0-0.01,0-0.01,0.01
			c0,0,0,0-0.01,0c-2.03,1.2-3.52,2.44-4.58,3.53c0,0,0,0-0.01,0.01c-0.17,0.17-0.33,0.34-0.48,0.51c-0.01,0.01-0.02,0.03-0.04,0.04
			c-0.14,0.16-0.27,0.31-0.4,0.46c-0.01,0.02-0.03,0.03-0.04,0.05c-0.12,0.14-0.23,0.28-0.33,0.41c-0.02,0.02-0.03,0.04-0.04,0.06
			c-0.1,0.13-0.19,0.25-0.27,0.37c-0.01,0.02-0.03,0.04-0.04,0.06c-0.08,0.11-0.15,0.22-0.22,0.32c-0.01,0.02-0.02,0.04-0.04,0.06
			c-0.06,0.09-0.12,0.18-0.17,0.26c-0.01,0.02-0.02,0.04-0.03,0.05c-0.05,0.08-0.09,0.15-0.12,0.21c-0.01,0.02-0.01,0.03-0.02,0.04
			c-0.03,0.06-0.06,0.11-0.08,0.15c-0.01,0.02-0.01,0.02-0.02,0.04c-0.02,0.03-0.03,0.06-0.04,0.08C24.5,26.6,24.5,26.6,24.5,26.6
			c0,0.01-0.01,0.01-0.01,0.02c0,0-0.01,0.03-0.02,0.07c-0.01,0.04,0.1,0.57,0.24,1.1l0.82,3.26c0.13,0.53-0.18,1.12-0.7,1.3
			l-10.06,3.47c-0.52,0.18-1.3,0.14-1.72-0.09c-0.43-0.23-0.76-0.46-0.74-0.52c0,0,0,0,0.03-0.06c0.09-0.19,0.17-0.37,0.23-0.55
			c0.04-0.1,0.06-0.2,0.09-0.3c0.05-0.17,0.09-0.33,0.12-0.49c0.02-0.1,0.04-0.19,0.05-0.29c0.02-0.16,0.04-0.32,0.04-0.47
			c0-0.08,0.01-0.17,0.01-0.25c0-0.17-0.01-0.33-0.03-0.48c-0.01-0.06-0.01-0.13-0.02-0.19c-0.06-0.44-0.18-0.84-0.34-1.22
			c-0.02-0.05-0.04-0.09-0.06-0.14c-0.06-0.14-0.13-0.27-0.2-0.4c-0.03-0.05-0.06-0.11-0.09-0.16c-0.07-0.11-0.13-0.22-0.2-0.32
			c-0.03-0.05-0.07-0.1-0.1-0.15c-0.07-0.1-0.14-0.19-0.22-0.28c-0.03-0.04-0.07-0.09-0.1-0.13c-0.08-0.09-0.16-0.18-0.23-0.26
			c-0.03-0.03-0.05-0.06-0.08-0.09c-0.1-0.1-0.19-0.19-0.28-0.28c0,0-0.01-0.01-0.01-0.01c-0.09-0.09-0.18-0.16-0.26-0.23
			c-0.04-0.03-0.06-0.05-0.1-0.08c-0.03-0.02-0.03-0.02-0.03-0.02c-0.03-0.03-0.06-0.05-0.06-0.05c0,0-0.06-0.04-0.13-0.09
			c-0.07-0.05-0.49,0.17-0.94,0.49c0,0-1.48,1.06-3.2,3.8c-1.72,2.75-2.05,4.58-2.05,4.58c-0.1,0.54-0.15,1.01-0.11,1.04
			c0.04,0.03,0.3,0.19,0.3,0.19c0,0,0,0,0.01,0.01c0,0,0,0,0,0c0.04,0.02,0.08,0.05,0.13,0.07c0.05,0.03,0.1,0.05,0.15,0.08
			c0.05,0.02,0.09,0.05,0.14,0.07c0.07,0.03,0.14,0.06,0.21,0.1c0.05,0.02,0.1,0.04,0.15,0.06c0.1,0.04,0.21,0.08,0.32,0.12
			c0.03,0.01,0.06,0.02,0.09,0.03c0.15,0.05,0.3,0.09,0.46,0.13C6,38.99,6.04,39,6.07,39c0.13,0.03,0.26,0.05,0.4,0.07
			c0.05,0.01,0.11,0.01,0.17,0.02c0.12,0.01,0.25,0.02,0.38,0.03c0.06,0,0.13,0,0.19,0c0.13,0,0.27-0.01,0.41-0.02
			c0.06-0.01,0.12-0.01,0.18-0.02c0.18-0.03,0.36-0.06,0.55-0.11c0.02,0,0.04-0.01,0.05-0.01C8.59,38.9,8.8,38.82,9,38.73
			c0.05-0.02,0.11-0.06,0.16-0.08c0.15-0.07,0.3-0.16,0.45-0.25c0.07-0.05,0.14-0.1,0.22-0.15c0.14-0.1,0.27-0.2,0.41-0.32
			c0.08-0.06,0.15-0.13,0.22-0.2c0.14-0.13,0.14-0.13,0.14-0.13c0.15-0.16,0.64-0.03,1.09,0.29l18.13,13.03
			c0.45,0.32,0.92,1.02,1.06,1.55l1,3.97c0.13,0.53,0.28,1.02,0.31,1.08c0,0,0,0,0.07,0.04c0.02,0.01,0.06,0.02,0.09,0.03
			c0.06,0.02,0.12,0.05,0.21,0.06c0.05,0.01,0.11,0.01,0.16,0.02c0.09,0.01,0.18,0.02,0.29,0.02c0.07,0,0.15,0,0.22,0
			c0.12,0,0.23-0.01,0.37-0.02c0.09-0.01,0.18-0.02,0.28-0.03c0.14-0.01,0.29-0.03,0.45-0.05c0.1-0.01,0.21-0.03,0.32-0.04
			c0.17-0.02,0.35-0.05,0.53-0.08c0.11-0.02,0.23-0.04,0.35-0.06c0.2-0.04,0.4-0.07,0.61-0.12c0.12-0.02,0.25-0.05,0.38-0.08
			c0.23-0.05,0.46-0.1,0.71-0.15c0.07-0.02,0.07-0.02,0.07-0.02c0.08-0.02,0.14-0.03,0.14-0.03c0,0,0.43-0.12,0.97-0.26
			c0,0,5.25-1.39,9.04-2.69c2.67-0.92,6.32-2.38,6.32-2.38c0.51-0.2,0.93-0.37,0.93-0.37c0,0,0.24-0.1,0.54-0.23c0,0,0,0,0.26-0.11
			c0.13-0.06,0.26-0.11,0.38-0.17c0.2-0.09,0.39-0.17,0.58-0.26c0.14-0.06,0.27-0.12,0.41-0.19c0.26-0.12,0.52-0.24,0.77-0.36
			c0.1-0.05,0.2-0.1,0.3-0.15c0.17-0.09,0.34-0.17,0.51-0.25c0.11-0.05,0.21-0.11,0.31-0.16c0.22-0.11,0.43-0.23,0.63-0.33
			c0.07-0.04,0.12-0.07,0.19-0.11c0.15-0.09,0.3-0.17,0.44-0.25c0.07-0.04,0.13-0.08,0.19-0.12c0.17-0.11,0.33-0.21,0.48-0.31
			c0.03-0.02,0.05-0.03,0.07-0.05c0.12-0.09,0.23-0.17,0.33-0.25c0.03-0.03,0.07-0.05,0.1-0.08c0.11-0.09,0.2-0.18,0.27-0.25
			c0.01-0.01,0.01-0.01,0.01-0.02c0.06-0.07,0.11-0.14,0.14-0.21c0.01-0.02,0.02-0.04,0.02-0.05c0.02-0.07,0.02-0.07,0.02-0.07
			c0-0.06-0.18-0.53-0.39-1.04l-0.7-1.7c-0.21-0.51-0.11-1.28,0.22-1.72c0,0,0.16-0.21,0.51-0.72
			C61.4,42.05,61.47,41.93,61.55,41.81z M65.9,21.77c0.76,3.25-0.57,11.37-2.77,15.38c-0.44,0.81-0.76,1.91-1.28,2.02
			c-0.15,0.03-0.16,0.27-0.24,0.4c-0.14,0.23-0.28,0.44-0.42,0.64c-0.06,0.09-0.13,0.2-0.19,0.29c-0.19,0.28-0.38,0.53-0.55,0.76
			c-0.07,0.09-0.12,0.16-0.19,0.24c-0.11,0.14-0.22,0.28-0.32,0.41c-0.07,0.08-0.13,0.16-0.19,0.23c-0.04,0.05-0.04,0.05-0.04,0.05
			c-0.04,0.05-0.25-0.32-0.46-0.83L51,21.25c-0.21-0.51-0.32-0.98-0.24-1.05c0,0,0,0,0.07-0.06c0.1-0.09,0.21-0.17,0.31-0.25
			c0.23-0.18,0.47-0.36,0.7-0.52c0.11-0.07,0.21-0.15,0.32-0.22C57.41,15.67,64.36,15.21,65.9,21.77z M16.53,37.58
			c-0.49-0.26-0.46-0.62,0.06-0.79l8.6-2.96c0.52-0.18,1.05,0.11,1.19,0.64l2.17,8.65c0.13,0.53-0.15,0.76-0.64,0.5L16.53,37.58z"/>
	</g>
</g>
<g id="Layer_1" class="st0">
	<g class="st1">
		<g>
			<path class="st3" d="M49.52,20.48c0,0,6.89-7.26,13.3-2.68c6.41,4.58,5.02,16.33-3,26.29l-0.76-1.23c0,0,2.24-2.23,4.01-5.88
				c1.97-4.05,3.44-9.7,2.41-12.94c-2.56-8-9.93-7.99-15.65-2.65L49.52,20.48z"/>
			<path class="st4" d="M62.06,38.84c-1.51,2.53-3.01,4.02-3.01,4.02l0.76,1.23c1.06-1.31,2-2.66,2.82-4.01
				C62.44,39.67,62.25,39.26,62.06,38.84z"/>
			<path class="st4" d="M52.93,19.07c-0.11-0.31-0.22-0.65-0.34-0.99c-1.87,1.14-3.07,2.4-3.07,2.4l0.3,0.91
				c1-0.93,2.05-1.7,3.12-2.29C52.94,19.09,52.93,19.08,52.93,19.07z"/>
			<g>
				<g>
					<path class="st3" d="M24.33,27.1l25.33-8.52L61.64,47.1c0.32,0.94-6.06,3.93-14.23,6.68c-8.18,2.75-15.06,4.22-15.38,3.28
						L24.33,27.1z"/>
					<path class="st4" d="M49.67,18.59l-6.98,2.35c2.29,5.61,4.59,11.21,6.91,16.81c1.39,3.37,2.84,6.74,4.15,10.14
						c0.36,0.94,0.79,2.08,0.92,3.21c4.36-1.79,7.18-3.36,6.97-3.99L49.67,18.59z"/>
					<path class="st4" d="M28.05,25.85l-3.72,1.25l7.69,29.95c0.17,0.5,2.22,0.32,5.34-0.39C34.4,46.36,30.67,36.27,28.05,25.85z"/>
					<path class="st3" d="M24.33,27.1c0.27,0.81,6.16-0.45,13.16-2.8c7-2.35,12.45-4.91,12.18-5.72c-0.27-0.8-6.16,0.45-13.16,2.8
						C29.52,23.74,24.06,26.3,24.33,27.1z"/>
					<g class="st5">
						<path class="st6" d="M48.86,19.49c-2.1,0.13-6.72,1.27-11.96,3.03c-5.24,1.76-9.61,3.64-11.37,4.81
							c2.1-0.13,6.72-1.27,11.96-3.03C42.73,22.54,47.11,20.66,48.86,19.49z"/>
					</g>
				</g>
				<path class="st3" d="M34.78,20.88c-0.48-0.39-1.25-0.99-2.03-1.32c-6.55,3.3-8.38,7.35-8.38,7.35
					c1.19,1.24,10.28-1.66,12.75-2.48C36.57,23.09,35.92,21.8,34.78,20.88z"/>
				<path class="st4" d="M35.33,25c0.74-0.23,1.36-0.43,1.79-0.57c-0.55-1.33-1.19-2.62-2.33-3.55c-0.29-0.23-0.68-0.53-1.1-0.8
					C34.56,21.61,35.13,23.24,35.33,25z"/>
				<path class="st6" d="M25.44,27.21c0.6-1.42,1.48-2.67,2.63-3.78c1.07-1.04,2.15-2.16,3.33-3.14c-5.46,3.14-7.03,6.62-7.03,6.62
					C24.55,27.1,24.92,27.19,25.44,27.21z"/>
			</g>
			<path class="st3" d="M26.91,33.34l-13.29,4.47c-0.39,0.13-0.81-0.08-0.94-0.47c-0.13-0.39,0.08-0.81,0.47-0.95l13.29-4.47
				c0.39-0.13,0.81,0.08,0.95,0.47C27.51,32.79,27.3,33.21,26.91,33.34z"/>
			<path class="st4" d="M12.8,37.56c0.19,0.24,0.52,0.35,0.82,0.25l13.29-4.47c0.31-0.1,0.5-0.39,0.51-0.7L12.8,37.56z"/>
			<path class="st3" d="M30.54,44.98L9.35,33.99l-0.94,1.74l23.81,16.71C33.39,51.42,31.98,46.74,30.54,44.98z"/>
			<path class="st4" d="M14.38,37.34c2.39,1.6,4.85,3.09,7.32,4.57c3.49,2.1,7.02,4.15,10.46,6.35c-0.4-1.28-1-2.54-1.61-3.29
				L9.35,33.99l-0.06,0.1C11.05,35.07,12.71,36.22,14.38,37.34z"/>
			<path class="st4" d="M19.73,42.9c-2.2-1.45-4.32-3.03-6.55-4.44c-1.53-0.97-3.01-2.15-4.62-3l-0.15,0.28l23.81,16.71
				c0.22-0.2,0.35-0.53,0.41-0.95C28.3,48.66,24.04,45.74,19.73,42.9z"/>
			<g>
				<path class="st3" d="M3.75,38.11c0,0,4.35,3.28,7.79-1.75c3.34-4.89-1.52-7.98-1.52-7.98L3.75,38.11z"/>
				<path class="st6" d="M10.27,28.56c2.32,4.17-1.23,10.25-6.15,9.79c1.11,0.65,4.58,2.17,7.42-1.99
					C14.41,32.15,11.23,29.28,10.27,28.56z"/>
				<path class="st7" d="M7.78,33.82c-1.73,2.69-3.53,4.61-4.03,4.29c-0.49-0.32,0.51-2.76,2.24-5.44c1.73-2.69,3.53-4.61,4.03-4.29
					C10.51,28.69,9.51,31.13,7.78,33.82z"/>
				<path class="st8" d="M6.67,33.57c-0.16,0.24-0.32,0.42-0.37,0.39c-0.04-0.03,0.05-0.25,0.2-0.49c0.16-0.24,0.32-0.42,0.36-0.39
					C6.92,33.1,6.83,33.32,6.67,33.57z"/>
				<path class="st8" d="M8.13,31.19c-0.16,0.24-0.32,0.42-0.37,0.39c-0.04-0.03,0.05-0.25,0.2-0.49c0.16-0.24,0.32-0.42,0.36-0.39
					C8.38,30.72,8.29,30.95,8.13,31.19z"/>
				<path class="st8" d="M5.15,35.84C5,36.08,4.83,36.26,4.79,36.23c-0.04-0.03,0.05-0.25,0.2-0.49c0.16-0.24,0.32-0.42,0.37-0.39
					C5.4,35.37,5.31,35.59,5.15,35.84z"/>
				<path class="st8" d="M6.41,34.89c-0.16,0.24-0.32,0.42-0.37,0.39c-0.04-0.03,0.05-0.25,0.2-0.49c0.16-0.24,0.32-0.42,0.36-0.39
					C6.66,34.43,6.56,34.65,6.41,34.89z"/>
				<path class="st8" d="M5.51,34.48c-0.16,0.24-0.32,0.42-0.37,0.39c-0.04-0.03,0.05-0.25,0.2-0.49c0.16-0.24,0.32-0.42,0.37-0.39
					C5.76,34.02,5.66,34.24,5.51,34.48z"/>
				<path class="st8" d="M7.78,32.75c-0.16,0.24-0.32,0.42-0.37,0.39c-0.04-0.03,0.05-0.25,0.2-0.49c0.16-0.24,0.32-0.42,0.37-0.39
					C8.03,32.29,7.94,32.51,7.78,32.75z"/>
				<path class="st8" d="M6.75,32.52c-0.16,0.24-0.32,0.42-0.37,0.39c-0.04-0.03,0.05-0.25,0.2-0.49c0.16-0.24,0.32-0.42,0.36-0.39
					C7,32.06,6.91,32.28,6.75,32.52z"/>
				<path class="st8" d="M4.38,37.24c-0.16,0.24-0.32,0.42-0.37,0.39c-0.04-0.03,0.05-0.25,0.2-0.49c0.16-0.24,0.32-0.42,0.37-0.39
					C4.62,36.77,4.53,36.99,4.38,37.24z"/>
				<path class="st8" d="M9.13,29.68c-0.16,0.24-0.32,0.42-0.37,0.39c-0.04-0.03,0.05-0.25,0.2-0.49c0.16-0.24,0.32-0.42,0.36-0.39
					C9.38,29.21,9.29,29.43,9.13,29.68z"/>
			</g>
		</g>
		<polygon class="st6" points="11.98,37.05 32.06,50.63 31.89,49.57 		"/>
		<path class="st6" d="M26.63,32.23l-11.7,3.93C14.93,36.17,21.28,34.85,26.63,32.23z"/>
		<path class="st6" d="M10.1,29.7c0,0-0.64,4.08-4.6,7.53C5.5,37.23,10.19,34.11,10.1,29.7z"/>
		<path class="st6" d="M29.77,27.3c0,0,5.38-1.15,10.85-3.12c0,0-2.53,1.2-3.43,2.55c-0.9,1.35,6.43,24.08,6.43,24.08
			s0.44,2.02,1.64,2.07c1.2,0.06,2.87-0.24,3.07-0.24c0.2,0-5.87,2.04-9.12,2.74c0,0,1.34,0.01,0.69-2.46
			c-0.65-2.47-7.29-23.2-7.29-23.4C32.61,29.32,32.19,27.56,29.77,27.3z"/>
	</g>
	<path id="XMLID_10_" class="st9" d="M-13.24,3.96c-1.5-1.7-4.6-3.4-8-3.1c-3.5,0.4-6.5,2.6-9,6.8c-3.2,5.4-5,7.2-5.5,7.7
		c-0.5,0-1.3-0.1-2.3-0.4c-2.8-0.9-5.7-1.4-8.7-1.3c-3.1,0.1-6.1,0.6-8.9,1.7c-1.3,0.3-2.5,0.2-3.7,0.2c-1.7-0.1-3.8-0.2-5.8,1.2
		c-2.3,1.7-2.7,4.4-2.9,6.5c-0.1,1-0.3,2.2-0.6,3.1c-2.4,4.2-3.6,8.8-3.5,13.6c0,1.6,0.2,3.2,0.5,4.7c-0.7,7.6-0.4,9-0.4,9.5
		c0.1,0.8,0.5,2.8,4.8,7c3.8,3.8,5.9,4.6,7.7,4.6c0.1,0,0.1,0,0.2,0c0.9,0,5.4-0.5,8.5-0.9c1.6,0.3,3.3,0.4,4.9,0.4
		c4-0.1,8-1.1,11.6-3c0.8-0.1,1.5-0.1,2.2-0.1c1.7,0,3.8,0,5.7-1.5c2.2-1.8,2.4-4.5,2.5-6.7c0-0.7,0.1-1.3,0.2-2
		c2.2-4,3.4-8.5,3.3-13c-0.1-3.9-1-7.6-2.7-11c-0.1-0.4-0.1-0.6-0.1-0.7c1.1-1.8,6.5-6.4,8.9-8.4l0.6-0.5c2.8-2.3,3.5-5,3.6-6.8
		C-10.04,7.56-12.54,4.66-13.24,3.96z"/>
	<path id="XMLID_7_" class="st10" d="M-17.84,8.36c0,0-4.4-4.8-8.8,2.7s-6.7,9.3-8.1,9.8c-1,0.4-3.4,0.1-4.7-0.1
		c-2.3-0.8-4.7-1.3-7.3-1.2c-3.1,0.1-6,0.8-8.6,2.1c-3.8,1.2-6.8,0.2-7.9,1.1c-0.9,0.7-0.3,3.8-0.7,6.8c-1.8,3.1-2.9,6.7-2.8,10.6
		c0,0.5,0.1,1.1,0.1,1.6l-0.1,0.9c-0.1,0.9-0.9,9.5-0.6,10.9c0.3,1.7,6.2,8,7.9,8l0,0c0.9,0,8.5-1.1,8.9-1.2l1.8-0.3l-0.2-0.1
		c0.9,0.1,1.8,0.2,2.8,0.2c3.8-0.1,7.3-1.2,10.3-3c2.9-0.5,5,0,5.9-0.6c0.9-0.7,0.5-3.6,1.1-6.5c1.7-3.1,2.8-6.7,2.7-10.5
		c-0.1-3.1-0.8-6.1-2.2-8.7c-0.4-1.1-0.9-3-0.4-4.6c0.8-2.6,6.9-7.6,10.8-10.8C-14.14,12.16-17.84,8.36-17.84,8.36z M-57.14,57.26
		c0.2,0.2,0.5,0.4,0.7,0.6c-0.5,0.1-1.6,0.1-2.2,0.1c-0.8-0.1-5.1-4-5.7-5.5c-0.1-0.4-0.1-1.9-0.1-2.5c0.2,0.1,0.5,0.3,0.8,0.6
		c1.5,2.4,3.5,4.4,5.8,6L-57.14,57.26z M-21.54,13.96c-1.3,1.3-7.3,6.2-2.3-1.5c0,0,2-2.3,3-1.6
		C-19.84,11.56-20.24,12.76-21.54,13.96z"/>
</g>
<g id="Layer_3">
	<path class="st6" d="M67.11,31.43c1.03-3.71,1.47-7.9,0.6-10.6c0-0.01-0.01-0.03-0.01-0.04c-0.6-3-2.1-5.92-5.46-7.22
		c0,0-3.8-2.48-9.48,0.82l-1.03,0.45L51,15.33c-0.24,0.16-0.26,0.09-0.42,0.21c-0.53-0.37-1.14-0.48-1.86-0.43
		c-0.22,0.02-5.52,0.43-12.71,2.84l-0.01,0l-0.32-0.26c-0.56-0.45-1.3-0.9-1.38-0.95c-0.73-0.44-1.9-0.78-2.79-0.31
		c-0.27,0.14-0.94,0.51-0.97,0.53c-2.18,1.25-4.03,2.7-5.55,4.34c-0.16,0.17-0.31,0.34-0.49,0.55c-0.13,0.16-0.25,0.31-0.42,0.51
		c-0.11,0.14-0.21,0.28-0.35,0.47c-0.09,0.13-0.18,0.25-0.29,0.42c-0.07,0.11-0.14,0.21-0.19,0.3l-0.79,1.48l0.22,0.36
		c0.04,0.27,0.13,0.61,0.26,1.1l0.73,2.84l-9.89,3.32c-0.04,0.01-0.08,0.02-0.13,0.02c0.03-0.1,0.05-0.21,0.07-0.31
		c0.02-0.12,0.04-0.24,0.06-0.37c0.03-0.21,0.05-0.41,0.06-0.66c0-0.09,0.01-0.19,0.01-0.28c0-0.22-0.02-0.43-0.04-0.66
		c-0.01-0.07-0.01-0.15-0.02-0.22c-0.08-0.54-0.23-1.07-0.45-1.57l-0.08-0.18c-0.08-0.17-0.16-0.34-0.25-0.5l-0.12-0.2
		c-0.08-0.14-0.17-0.27-0.26-0.41l-0.13-0.18c-0.09-0.12-0.18-0.24-0.3-0.38l-0.09-0.11c-0.1-0.12-0.2-0.22-0.31-0.34l-0.08-0.09
		c-0.03-0.03-0.05-0.05-0.08-0.08l-0.86-0.9L9.7,25.05c-0.7,0.01-1.35,0.47-1.77,0.76c-0.18,0.12-1.81,1.31-3.67,4.2
		c-1.86,2.89-2.26,4.86-2.3,5.07c-0.13,0.71-0.26,1.39-0.01,1.94l0.26,0.41l0.68,0.45l0.97,0.47c0.13,0.05,0.27,0.1,0.41,0.16
		l0.12,0.04c0.19,0.06,0.38,0.12,0.59,0.17l0.13,0.03c0.17,0.04,0.35,0.07,0.52,0.09l0.22,0.02c0.17,0.02,0.34,0.03,0.5,0.03
		c0.06,0,0.13,0,0.19,0c0.21,0,0.4-0.01,0.65-0.04l0.2-0.02c0.24-0.03,0.49-0.08,0.65-0.13l0.16-0.04c0.27-0.08,0.54-0.18,0.82-0.3
		c0.06-0.03,0.13-0.06,0.21-0.11c0.2-0.1,0.4-0.2,0.6-0.32c0.08-0.05,0.17-0.11,0.28-0.19c0.12-0.08,0.23-0.16,0.35-0.25
		l18.28,12.82c0.16,0.11,0.43,0.5,0.48,0.69l1.01,3.93c0.31,1.21,0.42,1.37,0.52,1.53l0.32,0.37l0.32,0.18l0.3,0.12
		c0.1,0.04,0.25,0.09,0.43,0.12c0.08,0.01,0.17,0.02,0.28,0.03c0.13,0.01,0.26,0.03,0.43,0.03l0.29,0c0.14,0,0.28-0.01,0.44-0.02
		l0.35-0.03c0.15-0.01,0.31-0.03,0.47-0.05l0.35-0.05c0.19-0.03,0.38-0.05,0.57-0.09l0.38-0.07c0.21-0.04,0.43-0.08,0.66-0.12
		l2.52-0.53v-0.06c0.93-0.24,5.61-1.48,9.16-2.67c2.71-0.91,6.35-2.33,6.5-2.39l0.93-0.37l0-0.01c0.18-0.06,0.38-0.14,0.59-0.23
		l1.69-0.73c0.28-0.12,0.54-0.25,0.8-0.36l1.18-0.57c0.24-0.12,0.46-0.24,0.67-0.35l0.21-0.11c0.17-0.09,0.33-0.18,0.48-0.27
		l0.21-0.13c0.2-0.12,0.38-0.23,0.54-0.33l0.09-0.06c0.15-0.1,0.29-0.21,0.46-0.33l0.09-0.08c0.17-0.14,0.31-0.27,0.47-0.45
		l0.05-0.06c0.11-0.14,0.21-0.29,0.29-0.45c0.04-0.08,0.08-0.17,0.12-0.28l0.1-0.29l-0.02-0.31c-0.01-0.2-0.02-0.37-0.51-1.52
		l-0.69-1.65c-0.01-0.04-0.01-0.09,0-0.15c0.32-0.38,1.02-1.28,1.85-2.8c0.02-0.04,0.05-0.08,0.07-0.11l0.24-0.46l0.23-0.47
		C65.47,36.6,66.36,34.35,67.11,31.43z M58.13,17.24c0,0,4.75-1.24,5.77,6.91c0.12,0.99,0.07,1.99-0.13,2.97
		c-0.52,2.53-2.13,7.8-3.62,10.15l-7.4-17.63C54.02,18.87,57.21,17.38,58.13,17.24z M19,35.69l5.78-1.95l1.46,5.7L19,35.69z
		 M24.18,24.94L24.18,24.94L24.18,24.94L24.18,24.94L24.18,24.94z M9.99,26.69l-0.03,0.03l0,0L9.99,26.69L9.99,26.69z M7.18,37.35
		L7.18,37.35L7.18,37.35L7.18,37.35z"/>
</g>
</svg>
