<?xml version="1.0" encoding="utf-8"?>
<!-- Generator: Adobe Illustrator 19.0.0, SVG Export Plug-In . SVG Version: 6.00 Build 0)  -->
<svg version="1.1" id="Layer_1" xmlns="http://www.w3.org/2000/svg" xmlns:xlink="http://www.w3.org/1999/xlink" x="0px" y="0px"
	 viewBox="0 0 70 70" style="enable-background:new 0 0 70 70;" xml:space="preserve">
<style type="text/css">
	.st0{fill:#FFFFFF;}
	.st1{fill:#383438;}
</style>
<path id="XMLID_10_" class="st0" d="M62.9,5.4c-1.5-1.7-4.6-3.4-8-3.1c-3.5,0.4-6.5,2.6-9,6.8c-3.2,5.4-5,7.2-5.5,7.7
	c-0.5,0-1.3-0.1-2.3-0.4c-2.8-0.9-5.7-1.4-8.7-1.3c-3.1,0.1-6.1,0.6-8.9,1.7c-1.3,0.3-2.5,0.2-3.7,0.2c-1.7-0.1-3.8-0.2-5.8,1.2
	c-2.3,1.7-2.7,4.4-2.9,6.5c-0.1,1-0.3,2.2-0.6,3.1C5.1,32,3.9,36.6,4,41.4c0,1.6,0.2,3.2,0.5,4.7c-0.7,7.6-0.4,9-0.4,9.5
	c0.1,0.8,0.5,2.8,4.8,7c3.8,3.8,5.9,4.6,7.7,4.6c0.1,0,0.1,0,0.2,0c0.9,0,5.4-0.5,8.5-0.9c1.6,0.3,3.3,0.4,4.9,0.4
	c4-0.1,8-1.1,11.6-3c0.8-0.1,1.5-0.1,2.2-0.1c1.7,0,3.8,0,5.7-1.5c2.2-1.8,2.4-4.5,2.5-6.7c0-0.7,0.1-1.3,0.2-2
	c2.2-4,3.4-8.5,3.3-13c-0.1-3.9-1-7.6-2.7-11c-0.1-0.4-0.1-0.6-0.1-0.7c1.1-1.8,6.5-6.4,8.9-8.4l0.6-0.5c2.8-2.3,3.5-5,3.6-6.8
	C66.1,9,63.6,6.1,62.9,5.4z"/>
<path id="XMLID_7_" class="st1" d="M58.3,9.8c0,0-4.4-4.8-8.8,2.7c-4.4,7.5-6.7,9.3-8.1,9.8c-1,0.4-3.4,0.1-4.7-0.1
	c-2.3-0.8-4.7-1.3-7.3-1.2c-3.1,0.1-6,0.8-8.6,2.1c-3.8,1.2-6.8,0.2-7.9,1.1C12,24.9,12.6,28,12.2,31c-1.8,3.1-2.9,6.7-2.8,10.6
	c0,0.5,0.1,1.1,0.1,1.6l-0.1,0.9c-0.1,0.9-0.9,9.5-0.6,10.9C9.1,56.7,15,63,16.7,63c0,0,0,0,0,0c0.9,0,8.5-1.1,8.9-1.2l1.8-0.3
	l-0.2-0.1c0.9,0.1,1.8,0.2,2.8,0.2c3.8-0.1,7.3-1.2,10.3-3c2.9-0.5,5,0,5.9-0.6c0.9-0.7,0.5-3.6,1.1-6.5C49,48.4,50.1,44.8,50,41
	c-0.1-3.1-0.8-6.1-2.2-8.7c-0.4-1.1-0.9-3-0.4-4.6c0.8-2.6,6.9-7.6,10.8-10.8C62,13.6,58.3,9.8,58.3,9.8z M19,58.7
	c0.2,0.2,0.5,0.4,0.7,0.6c-0.5,0.1-1.6,0.1-2.2,0.1c-0.8-0.1-5.1-4-5.7-5.5c-0.1-0.4-0.1-1.9-0.1-2.5c0.2,0.1,0.5,0.3,0.8,0.6
	c1.5,2.4,3.5,4.4,5.8,6L19,58.7z M54.6,15.4c-1.3,1.3-7.3,6.2-2.3-1.5c0,0,2-2.3,3-1.6C56.3,13,55.9,14.2,54.6,15.4z"/>
</svg>
