<?xml version="1.0" encoding="utf-8"?>
<!-- Generator: Adobe Illustrator 26.0.2, SVG Export Plug-In . SVG Version: 6.00 Build 0)  -->
<svg version="1.1" id="Layer_1" xmlns="http://www.w3.org/2000/svg" xmlns:xlink="http://www.w3.org/1999/xlink" x="0px" y="0px"
	 viewBox="0 0 104 16" style="enable-background:new 0 0 104 16;" xml:space="preserve">
<style type="text/css">
	.st0{fill:#FCDB54;}
</style>
<g>
	<polygon class="st0" points="13.53,16 8.35,13.39 3.16,15.96 4.03,10.22 0,6.07 5.71,5.13 8.41,0 11.07,5.16 16.78,6.14 
		12.69,10.26 	"/>
	<polygon class="st0" points="35.2,16 30.03,13.39 24.84,15.96 25.72,10.22 21.67,6.07 27.39,5.13 30.09,0 32.75,5.16 38.45,6.14 
		34.37,10.26 	"/>
	<polygon class="st0" points="57.1,16 51.93,13.39 46.74,15.96 47.62,10.22 43.57,6.07 49.29,5.13 51.99,0 54.64,5.16 60.35,6.14 
		56.27,10.26 	"/>
	<polygon class="st0" points="78.8,16 73.63,13.39 68.44,15.96 69.32,10.22 65.28,6.07 70.99,5.13 73.69,0 76.35,5.16 82.06,6.14 
		77.98,10.26 	"/>
	<polygon class="st0" points="100.75,16 95.58,13.39 90.39,15.96 91.27,10.22 87.22,6.07 92.94,5.13 95.64,0 98.3,5.16 104,6.14 
		99.93,10.26 	"/>
</g>
</svg>
