<?xml version="1.0" encoding="utf-8"?>
<!-- Generator: Adobe Illustrator 26.0.2, SVG Export Plug-In . SVG Version: 6.00 Build 0)  -->
<svg version="1.1" id="Layer_1" xmlns="http://www.w3.org/2000/svg" xmlns:xlink="http://www.w3.org/1999/xlink" x="0px" y="0px"
	 viewBox="0 0 100 50" style="enable-background:new 0 0 100 50;" xml:space="preserve">
<style type="text/css">
	.st0{fill:#111111;}
	.st1{fill:#111011;}
</style>
<g>
	<path id="XMLID_732_" class="st0" d="M18.5,46.1c-2.3,0-4.8-1-5.8-1.8l-1.2-0.5V24.5c-3-2-5.8-5.5-5.9-5.6l-0.1-0.4V6.7h4v10.7
		c0,0.9,2.2,3.1,5,4.2l1,0.4v19.8c2,0.5,2,1.1,4,0V22l1.1-0.4c0,0,4.9-1.2,4.9-4.1V6.7h4v11.6l-0.1,0.4c-1.6,3.2-3.9,5-5.9,5.7v19.2
		l-0.3,0.5C21.5,45.6,20.1,46.1,18.5,46.1z"/>
	<rect id="XMLID_731_" x="12.5" y="6.7" class="st0" width="4" height="12"/>
	<rect id="XMLID_730_" x="18.5" y="6.7" class="st0" width="4" height="12"/>
	<path id="XMLID_727_" class="st0" d="M90.3,45.9c-1.4,0-3.6-0.4-5.3-1.5l-1.4-0.5V31.4c-2-0.1-6.4-1.3-7.3-5.8l0.2-0.5l5.7-17
		L82.3,8c0.2-0.3,2.2-2.6,5.4-2.9c2.3-0.2,4.3,0.7,6.5,2.7l0.2,0.5v35.4l-0.1,0.5C93.6,45,92.4,45.9,90.3,45.9z M87.6,41.9
		c1.7,0.8,2.9,0.5,2.9,0.1V9.9c0-1-1.8-1.4-3-1.3c-1.4,0.1-2.1,1-2.5,1.4l-4.8,15.4c1,3.1,5.7,2.5,5.9,2.4l1.8-0.3L87.6,41.9z"/>
	<path id="XMLID_721_" class="st1" d="M53.6,33.2c-5.4,0-9.8-4.4-9.8-9.8s4.4-9.8,9.8-9.8s9.8,4.4,9.8,9.8S59,33.2,53.6,33.2z
		 M53.6,17.2c-3.4,0-6.2,2.8-6.2,6.2s2.8,6.2,6.2,6.2c3.4,0,6.2-2.8,6.2-6.2C59.8,20,57,17.2,53.6,17.2z"/>
	<path id="XMLID_718_" class="st0" d="M53.4,46.3c-1.7,0-3.5-0.8-4.6-1.7c-2.1-1.6-4.1-3.1-6-5c-2.6-2.7-5.3-5.7-6.9-9.1
		c-1.7-3.7-2.2-8-1.5-12.1c0.7-3.8,3.1-7.2,5.9-9.8c1.9-1.8,3.8-3,6.2-3.9s5-1.2,7.6-1.1c3.8,0.1,7.8,1.1,10.9,3.5
		c5.8,4.4,9.2,11,7.7,18.3c-0.9,4.5-3.3,8.2-6.3,11.6c-1.7,2-3.6,3.8-5.6,5.5C58.7,44.3,56.2,46.3,53.4,46.3z M52.5,42.6
		c1.8,0.6,3.5-0.8,4.8-1.8c1.6-1.2,3.1-2.5,4.5-4c1.9-1.9,3.7-3.9,5.1-6.2c3.6-5.8,3.5-12.5-1-17.7C64,10.8,61.8,9,59.1,8.2
		c-4-1.2-8.2-1.2-12.1,0.3s-7.4,5.6-8.8,9.5c-0.8,2.3-0.7,5-0.2,7.3c0.7,3.6,2.6,6.5,4.9,9.1C45.6,37.6,48.7,40.9,52.5,42.6
		C53.1,42.8,52.5,42.7,52.5,42.6z"/>
</g>
</svg>
