<?xml version="1.0" encoding="utf-8"?>
<!-- Generator: Adobe Illustrator 26.0.2, SVG Export Plug-In . SVG Version: 6.00 Build 0)  -->
<svg version="1.1" id="Layer_1" xmlns="http://www.w3.org/2000/svg" xmlns:xlink="http://www.w3.org/1999/xlink" x="0px" y="0px"
	 viewBox="0 0 32 32" style="enable-background:new 0 0 32 32;" xml:space="preserve">
<style type="text/css">
	.st0{fill:none;stroke:#070707;stroke-width:3;stroke-miterlimit:10;}
</style>
<path class="st0" d="M10.92,16.81V7.99c0-0.07,0.01-0.14,0.02-0.2c0.06-0.23,0.23-0.82,0.53-1.4c0.42-0.8,1.25-1.29,2.13-1.29
	l5.93,0c0.08,0,0.15,0.01,0.23,0.04c0.97,0.29,4.13,0.43,6.35,3.63C26.72,9.61,27,10.65,27,11.7l0,9.76c0,0.62-0.14,1.23-0.42,1.77
	c-0.33,0.63-0.91,1.43-1.88,2.05c-0.52,0.34-1.14,0.48-1.76,0.48c-2.36,0-8.98,0-11.25,0c-0.51,0-1-0.16-1.42-0.45l-6.72-4.68
	c-0.65-0.45-1.07-1.18-1.11-1.98c-0.06-0.94,0.14-2.14,1.28-2.78c0.71-0.4,1.59-0.39,2.35-0.09l4.04,1.61
	C10.5,17.53,10.92,17.24,10.92,16.81z"/>
</svg>
